HIERARCHY
ROOT Hips
{
 OFFSET 0.000000 0.000000 0.000000
 CHANNELS 6 Xposition Yposition Zposition Yrotation Xrotation Zrotation
 JOINT Chest
 {
  OFFSET 0.000000 9.585900 0.002600
  CHANNELS 3 Yrotation Xrotation Zrotation
  JOINT Chest2
  {
   OFFSET 0.000000 9.601200 -0.005300
   CHANNELS 3 Yrotation Xrotation Zrotation
   JOINT Chest3
   {
    OFFSET 0.000000 9.561800 0.000000
    CHANNELS 3 Yrotation Xrotation Zrotation
    JOINT Chest4
    {
     OFFSET 0.000000 9.552100 0.000000
     CHANNELS 3 Yrotation Xrotation Zrotation
     JOINT Neck
     {
      OFFSET 0.000000 14.453000 0.000000
      CHANNELS 3 Yrotation Xrotation Zrotation
      JOINT Head
      {
       OFFSET 0.000000 8.936500 -0.011300
       CHANNELS 3 Yrotation Xrotation Zrotation
       End Site
       {
        OFFSET 0.000000 17.073600 -0.006000
       }
      }
     }
     JOINT RightCollar
     {
      OFFSET -2.921100 9.558500 0.000000
      CHANNELS 3 Yrotation Xrotation Zrotation
      JOINT RightShoulder
      {
       OFFSET -13.519700 0.000000 0.000000
       CHANNELS 3 Yrotation Xrotation Zrotation
       JOINT RightElbow
       {
        OFFSET 0.000000 -29.696600 0.000000
        CHANNELS 3 Yrotation Xrotation Zrotation
        JOINT RightWrist
        {
         OFFSET 0.000000 -24.004700 0.000000
         CHANNELS 3 Yrotation Xrotation Zrotation
         End Site
         {
          OFFSET 0.000000 -17.728500 0.000000
         }
        }
       }
      }
     }
     JOINT LeftCollar
     {
      OFFSET 2.921100 9.558500 0.000000
      CHANNELS 3 Yrotation Xrotation Zrotation
      JOINT LeftShoulder
      {
       OFFSET 13.519700 0.000000 0.000000
       CHANNELS 3 Yrotation Xrotation Zrotation
       JOINT LeftElbow
       {
        OFFSET 0.000000 -29.696600 0.000000
        CHANNELS 3 Yrotation Xrotation Zrotation
        JOINT LeftWrist
        {
         OFFSET 0.000000 -24.004700 0.000000
         CHANNELS 3 Yrotation Xrotation Zrotation
         End Site
         {
          OFFSET 0.000000 -17.728500 0.000000
         }
        }
       }
      }
     }
    }
   }
  }
 }
 JOINT RightHip
 {
  OFFSET -7.771700 -0.012900 -0.001300
  CHANNELS 3 Yrotation Xrotation Zrotation
  JOINT RightKnee
  {
   OFFSET 0.000000 -40.869800 0.001200
   CHANNELS 3 Yrotation Xrotation Zrotation
   JOINT RightAnkle
   {
    OFFSET 0.000000 -39.717900 0.002100
    CHANNELS 3 Yrotation Xrotation Zrotation
    JOINT RightToe
    {
     OFFSET 0.000000 -4.965400 11.033500
     CHANNELS 3 Yrotation Xrotation Zrotation
     End Site
     {
      OFFSET 0.000000 -1.423100 5.872300
     }
    }
   }
  }
 }
 JOINT LeftHip
 {
  OFFSET 7.771700 -0.012900 -0.001300
  CHANNELS 3 Yrotation Xrotation Zrotation
  JOINT LeftKnee
  {
   OFFSET 0.000000 -40.869800 0.001200
   CHANNELS 3 Yrotation Xrotation Zrotation
   JOINT LeftAnkle
   {
    OFFSET 0.000000 -39.717900 0.002100
    CHANNELS 3 Yrotation Xrotation Zrotation
    JOINT LeftToe
    {
     OFFSET 0.000000 -4.965400 11.033500
     CHANNELS 3 Yrotation Xrotation Zrotation
     End Site
     {
      OFFSET 0.000000 -1.423100 5.872300
     }
    }
   }
  }
 }
}
MOTION
Frames: 12
Frame Time: 0.008333
0.000000 85.388000 0.000000 0.000000 -5.767877 0.000000 0.000000 11.653817 0.000000 0.000000 -5.885947 0.000000 0.000000 -0.000000 0.000000 0.000000 -0.000000 0.000000 0.000000 12.528835 0.000000 0.000000 0.711642 0.000000 0.000000 -0.000000 0.000000 0.000000 0.000000 -90.000000 0.000000 -2.309062 0.000000 0.000000 2.309062 0.000000 0.000000 -0.000000 0.000000 0.000000 -0.000000 90.000000 0.000000 -2.309062 0.000000 0.000000 2.309062 0.000000 0.000000 8.520406 0.000000 0.000000 1.905762 0.000000 -0.000000 -4.658285 0.000000 0.000000 -0.000000 0.000000 0.000000 8.520406 0.000000 0.000000 1.905762 0.000000 -0.000000 -4.658285 0.000000 0.000000 -0.000000 0.000000
-44.689805 62.085090 13.338196 176.609398 -52.626888 -0.594143 4.542207 26.524810 1.156222 0.744056 4.447973 0.155221 1.113901 7.076293 0.303300 3.631009 21.524026 1.418246 6.005872 13.867779 2.638665 10.223355 -10.025300 2.687380 6.961153 4.659341 7.595282 13.459618 -16.031618 -23.768519 -75.176944 -64.418690 114.955559 24.556185 9.552544 30.147378 -9.498248 4.445948 0.922499 12.682984 -33.047720 13.512395 -111.816451 -72.615110 136.709225 13.589341 -7.499340 41.242630 2.351327 -14.299767 -6.445445 -0.114776 60.930927 -3.601070 2.255524 -8.159921 10.138617 0.036116 -0.134436 0.113859 -3.435606 -11.393721 1.960531 27.124212 76.458803 27.987040 0.563542 -11.913611 -3.961864 0.283500 0.659172 0.177439
-44.703571 62.084451 13.346404 176.705745 -52.631989 -0.661463 4.525959 26.520405 1.152853 0.736086 4.452270 0.156552 1.131497 7.078164 0.298897 3.645827 21.525736 1.422623 5.968677 13.864176 2.669643 10.120494 -10.016134 2.734864 7.047088 4.580365 7.650014 14.085525 -16.398357 -24.036068 -74.370669 -64.324238 114.192456 24.612800 9.627838 30.397989 -9.400016 4.489914 0.993589 12.694948 -32.801712 13.639421 -113.714401 -72.409470 138.212308 13.570827 -7.548284 41.110451 2.319796 -14.282416 -6.435249 -0.096191 60.919969 -3.614758 2.217608 -8.158595 10.171542 0.051457 -0.139163 0.095653 -3.421058 -11.409284 1.958612 27.025021 76.472188 27.932877 0.505079 -11.902956 -3.970748 0.343771 0.650569 0.192406
-44.715640 62.083324 13.356527 176.719578 -52.635383 -0.682275 4.616550 26.495692 1.170497 0.665182 4.475705 0.187724 1.184537 7.073288 0.277910 3.656255 21.533538 1.436458 5.921851 13.877165 2.662112 10.017483 -10.020894 2.823042 7.129788 4.495697 7.704861 14.716722 -16.761120 -24.309579 -73.534902 -64.217219 113.404996 24.672136 9.702063 30.627837 -9.319821 4.532456 1.060214 12.706681 -32.559930 13.732907 -115.682661 -72.231747 139.761216 13.564971 -7.599232 41.013364 2.375281 -14.265309 -6.399642 -0.138802 60.901864 -3.666618 2.183859 -8.163386 10.191684 0.054322 -0.133004 0.100985 -3.394972 -11.415809 1.970785 26.975889 76.470811 27.899452 0.484823 -11.890112 -3.967885 0.354990 0.647856 0.204724
-44.738026 62.083524 13.365854 176.764188 -52.650480 -0.669529 4.618523 26.496426 1.124838 0.665617 4.482881 0.188900 1.196250 7.073130 0.275695 3.670805 21.541320 1.440422 5.873565 13.887284 2.684504 9.904297 -9.997875 2.897764 7.219844 4.411478 7.763141 15.341086 -17.120028 -24.588377 -72.694679 -64.090577 112.623461 24.748913 9.791155 30.835573 -9.247692 4.580587 1.121251 12.721780 -32.323761 13.791421 -117.727443 -72.084198 141.353406 13.559030 -7.654867 40.950669 2.428276 -14.234047 -6.413924 -0.120617 60.897056 -3.696285 2.112653 -8.183047 10.243257 0.045056 -0.124028 0.107337 -3.383709 -11.410174 1.929837 26.967357 76.447997 27.860651 0.483956 -11.870858 -3.929416 0.320112 0.653199 0.207928
-44.750556 62.086081 13.374646 176.785201 -52.683391 -0.696372 4.639747 26.518722 1.143016 0.692527 4.475844 0.178428 1.207330 7.079111 0.276906 3.692532 21.541976 1.441802 5.813062 13.910027 2.716019 9.775866 -9.964936 2.981751 7.310421 4.333305 7.829971 15.951809 -17.473588 -24.871227 -71.904648 -63.950111 111.890995 24.858051 9.899982 31.030278 -9.197499 4.632941 1.176775 12.743088 -32.088930 13.819832 -119.808582 -71.958969 142.952454 13.553165 -7.716068 40.923631 2.451256 -14.180435 -6.399215 -0.153444 60.867373 -3.722011 2.143723 -8.212947 10.208773 -0.002375 -0.092633 0.155087 -3.388161 -11.380091 1.939011 26.966759 76.437866 27.848650 0.479263 -11.866003 -3.916652 0.321915 0.657458 0.200216
-44.767084 62.086715 13.384721 176.834871 -52.702443 -0.719323 4.630822 26.529679 1.131721 0.722023 4.469668 0.170566 1.216540 7.085447 0.274370 3.766543 21.543119 1.419970 5.707191 13.933397 2.793306 9.631443 -9.922321 3.075005 7.365242 4.245557 7.940371 16.539407 -17.814504 -25.150163 -71.208683 -63.820505 111.245432 24.995801 10.019942 31.223042 -9.253147 4.668152 1.272195 12.815775 -31.832057 13.814975 -121.903038 -71.848742 144.543408 13.553305 -7.777401 40.924087 2.437502 -14.151546 -6.404657 -0.092495 60.856309 -3.694848 2.119230 -8.230781 10.209410 -0.000774 -0.086035 0.157439 -3.375009 -11.371929 1.928154 26.917928 76.429064 27.797119 0.478092 -11.849662 -3.909659 0.309979 0.657670 0.215011
-44.780103 62.087283 13.394878 176.888191 -52.720907 -0.761279 4.656290 26.529449 1.139604 0.771387 4.461418 0.158094 1.153519 7.106257 0.303000 3.833555 21.544735 1.394172 5.616645 13.963548 2.846395 9.471058 -9.866561 3.178599 7.458419 4.150460 8.029594 17.089750 -18.130900 -25.418346 -70.617549 -63.732002 110.701848 25.137722 10.136839 31.420997 -9.226975 4.707551 1.308216 12.794278 -31.592148 13.822662 -123.996419 -71.750774 146.126102 13.553767 -7.831906 40.930485 2.452468 -14.120849 -6.385216 -0.118878 60.844015 -3.731583 2.088489 -8.236446 10.234146 0.015227 -0.089459 0.146238 -3.347094 -11.367280 1.941860 26.792057 76.433386 27.687218 0.457554 -11.829405 -3.887920 0.327437 0.645671 0.205675
-44.802737 62.089068 13.402933 176.936533 -52.749348 -0.735823 4.687206 26.530055 1.088638 0.750260 4.475781 0.164291 1.129102 7.117584 0.313969 3.881230 21.546732 1.374531 5.542154 13.989932 2.892011 9.287175 -9.784838 3.288901 7.579196 4.047631 8.109022 17.599687 -18.417682 -25.668168 -70.105015 -63.699389 110.233215 25.261076 10.239072 31.627331 -9.229220 4.730961 1.338533 12.800708 -31.330289 13.789836 -126.061913 -71.657138 147.685525 13.547172 -7.872364 40.922834 2.518901 -14.077814 -6.425038 -0.158265 60.849057 -3.788654 2.030788 -8.258859 10.289178 0.030243 -0.090576 0.134167 -3.343412 -11.346803 1.889657 26.762075 76.411490 27.607156 0.473009 -11.806794 -3.826474 0.278761 0.647608 0.189517
-44.816360 62.095369 13.407503 177.033620 -52.810918 -0.796595 4.654684 26.581990 1.081282 0.780602 4.470081 0.155769 1.138948 7.123004 0.311197 3.903020 21.555704 1.377342 5.452800 14.034198 2.932775 9.102266 -9.706973 3.402320 7.703632 3.936457 8.184246 18.078441 -18.678363 -25.890868 -69.654583 -63.709656 109.819264 25.369430 10.328657 31.849461 -9.208752 4.762222 1.322483 12.742263 -31.087333 13.771694 -128.074329 -71.556790 149.198024 13.539308 -7.893601 40.891686 2.515929 -13.989430 -6.420401 -0.195333 60.832658 -3.835301 2.012481 -8.285179 10.303087 0.047002 -0.100774 0.116008 -3.360319 -11.293122 1.883763 26.693480 76.406135 27.532821 0.452693 -11.786363 -3.805889 0.275231 0.640797 0.204233
-44.824085 62.097987 13.414458 177.072335 -52.845264 -0.841759 4.700601 26.590861 1.110800 0.798978 4.474380 0.152521 1.134077 7.131329 0.314629 3.926561 21.567077 1.380374 5.348609 14.094335 2.968435 8.916409 -9.636535 3.518234 7.822592 3.823071 8.251702 18.529460 -18.920405 -26.083026 -69.260723 -63.745828 109.461064 25.468498 10.410539 32.088906 -9.205257 4.794188 1.293217 12.680285 -30.848555 13.731420 -130.012553 -71.448728 150.640366 13.538497 -7.897572 40.838196 2.524697 -13.933021 -6.396363 -0.236138 60.806897 -3.867115 2.028575 -8.328807 10.264308 0.013383 -0.060460 0.164558 -3.350133 -11.264388 1.910275 26.612018 76.408132 27.460278 0.428126 -11.778970 -3.805994 0.293474 0.637843 0.214996
-44.831434 62.100281 13.420758 177.115953 -52.877517 -0.887650 4.784004 26.587458 1.146585 0.752391 4.496944 0.167204 1.202435 7.132639 0.293569 3.917398 21.571758 1.405720 5.255705 14.131767 3.014373 8.694317 -9.534085 3.637669 7.931183 3.712445 8.314121 18.944524 -19.153063 -26.241019 -68.887631 -63.801700 109.135495 25.563053 10.492744 32.332939 -9.227401 4.823246 1.272729 12.629747 -30.599734 13.651299 -131.860077 -71.335188 151.999424 13.549341 -7.884159 40.764902 2.528256 -13.886516 -6.375007 -0.277325 60.792832 -3.901031 2.027916 -8.353534 10.256537 0.015192 -0.054151 0.162579 -3.341861 -11.238841 1.935581 26.529595 76.411720 27.385653 0.397529 -11.770542 -3.794964 0.324023 0.630407 0.199718
